<svg viewBox="0 0 256 256" xmlns="http://www.w3.org/2000/svg">
<g clip-path="url(#clip0_5_2)">
<path d="M15.4995 66.062L9.01291 80.3596L29.6807 90.2259L36.1673 75.9282L33.2198 74.6784L30.0777 81.4885L23.9451 78.5488L27.0872 71.7387L24.1397 70.4889L20.7601 76.859L15.305 74.1219L18.4471 67.3118L15.4995 66.062Z" />
<path d="M2.70162 100.105C1.6663 109.282 8.75024 112.303 12.4216 112.666C21.4542 114.513 24.7676 108.327 26.3034 102.441C27.5321 97.7328 27.406 93.441 27.1894 91.8837L17.7004 89.8323L15.8048 97.7479L23.7203 99.6435L23.3606 101.673C22.1845 105.529 16.8036 105.314 12.9479 104.138C9.0921 102.962 5.64447 100.873 6.15999 97.27C6.5724 94.3873 8.90948 93.57 10.0265 93.5216L10.7944 90.5788L6.68622 88.7422C3.50712 93.8933 2.7052 98.464 2.70162 100.105Z" />
<path d="M0.344896 131.672L0.216122 138.83L23.2637 139.07L23.0519 133.373L11.2846 133.196L23.0343 124.641L23.2767 116.996L0.333679 117L0.327358 122.94L12.0946 123.116L0.344896 131.672Z" />
<path d="M2.5 154L1 145.5L23.5 141.5L25 150L2.5 154Z" />
<path d="M7.66349 171.889L10.2349 179.78L31.7911 172.279L29.1594 164.886L23.3981 166.717L28.152 160.722L25.2046 151.775L15.5161 165.258L3.58824 159.773L5.84395 166.11L15.5308 169.303L7.66349 171.889Z" />
<path d="M13.2852 185.766L21.4497 199.177L41.2397 187.65L33.0752 174.24L30.3828 175.972L34.2421 182.403L28.36 185.816L24.5007 179.386L21.8083 181.118L25.1702 187.497L19.8369 190.465L15.9776 184.034L13.2852 185.766Z" />
<path d="M35.3743 216.24L52.5283 201.818L42.7173 189.663L39.7764 191.626L44.6819 197.703L29.9785 210.065L35.3743 216.24Z" />
<path fill-rule="evenodd" clip-rule="evenodd" d="M69.3403 216.004L55.4474 234.149L45.4946 226.184C43.7235 224.892 40.7756 221.377 43.1529 217.653C45.5303 213.929 49.3708 215.429 50.9939 216.644C47.2823 213.372 48.4784 209.9 49.5404 208.573C52.8245 203.967 58.0656 206.604 60.2756 208.498L69.3403 216.004ZM54.9595 220.948L50.8544 226.705C49.3079 225.342 48.8793 223.994 50.7021 221.56C52.1603 219.612 54.148 220.34 54.9595 220.948ZM56.3228 219.401L61.3315 212.986C60.52 212.378 57.4144 211.634 55.9562 213.582C54.1334 216.017 54.7763 218.038 56.3228 219.401Z" />
<path d="M80.5805 230.571C78.9805 227.771 76.2471 228.405 75.0805 229.071C72.7463 230.405 72.5804 233.571 73.5804 235.071C75.5804 238.071 78.2471 237.405 79.5805 236.571C80.5805 235.738 82.1805 233.371 80.5805 230.571Z" />
<path fill-rule="evenodd" clip-rule="evenodd" d="M92 251.5L96 229L108.5 231.5C110.667 231.833 114.9 233.6 114.5 238C114.1 242.4 110 242.833 108 242.5C112.8 243.7 113.333 247.333 113 249C112.2 254.6 106.333 254.667 103.5 254L92 251.5ZM102.5 240.5L103.5 233.5C105.5 234 106.5 235 106 238C105.6 240.4 103.5 240.667 102.5 240.5ZM102 242.5L100.5 250.5C101.5 250.667 104.6 249.9 105 247.5C105.5 244.5 104 243 102 242.5Z" />
<path d="M137.816 232.957L117.637 233.129L117.481 236.661L123.501 236.573L123.366 255.677L131.506 255.682L131.64 236.578L137.66 236.489L137.816 232.957Z" />
<path d="M139.518 233.445L143.944 255.415L152.012 253.949L149.9 243.86L156.177 242.595L158.29 252.684L166.587 250.774L161.717 228.575L153.419 230.485L155.545 239.457L149.268 240.721L147.142 231.75L139.518 233.445Z" />
<path d="M183.5 230.5C181.9 227.7 179.167 228.333 178 229C175.666 230.334 175.5 233.5 176.5 235C178.5 238 181.167 237.333 182.5 236.5C183.5 235.667 185.1 233.3 183.5 230.5Z" />
<path fill-rule="evenodd" clip-rule="evenodd" d="M202.664 202.393L210.498 225.628L204.469 230.308L183.406 218.129L190.254 212.688L196.281 216.553L200.847 212.926L198.098 206.02L202.664 202.393ZM201.84 215.969L198.914 218.075L204.004 221.588L201.84 215.969Z" />
<path d="M231.5 203L214 189L204 201L206.5 203.5L211.5 197.5L226.5 209.5L231.5 203Z" />
<path fill-rule="evenodd" clip-rule="evenodd" d="M237.758 168.328C233.937 166.641 225.283 165.561 221.235 174.731C216.175 186.194 220.717 189.638 225.351 192.382C229.985 195.125 238.49 195.521 242.179 186.375C245.867 177.23 246.019 173.327 237.758 168.328ZM229.832 174.426C228.429 174.243 225.625 173.877 224.253 176.194C222.881 178.511 223.308 180.706 225.229 182.382C226.765 183.724 230.97 185.746 232.881 186.589C235.486 187.739 238.399 188.022 239.862 185.004C241.435 181.759 239.801 180.004 238.185 178.724C236.569 177.443 231.441 174.585 229.832 174.426Z" />
<path d="M252.676 156.605L254.783 148.492L232.492 143.073L230.385 151.186L236.451 152.391L229.557 154.73L227 163.866L241.738 158.14L249.291 169.285L250.971 162.695L244.564 154.498L252.676 156.605Z" />
<path d="M239.659 126.274L239.539 123.777L234.497 123.018C233.753 124.89 232.298 129.331 232.432 132.128C232.567 134.925 233.679 137.241 234.219 138.049C234.774 139.19 236.784 141.43 240.38 141.257C243.976 141.084 246.094 138.646 246.704 137.449L249.009 133.333C249.144 132.659 249.812 131.292 251.41 131.215C253.009 131.138 253.504 133.117 253.552 134.116C253.306 137.331 251.231 137.898 250.224 137.78L249.845 140.301L254.388 141.084C255.299 139.204 256.868 134.357 255.857 130C254.594 124.555 251.05 123.724 248.553 123.844C246.555 123.94 244.471 125.709 243.679 126.581C243.362 126.93 242.357 128.247 240.874 130.721C239.021 133.813 238.521 133.837 237.523 133.886C236.524 133.934 235.477 132.983 235.832 129.962C236.116 127.546 237.836 126.529 238.661 126.322L239.659 126.274Z" />
<path d="M253.5 103.5C250.7 94.7 243 94.8333 239.5 96C230.5 98 230 105 231 111C231.8 115.8 233.667 119.667 234.5 121L244 119L242.5 111L234.5 112.5L234 110.5C233.5 106.5 238.5 104.5 242.5 104C246.5 103.5 250.5 104 251.5 107.5C252.3 110.3 250.5 112 249.5 112.5L250 115.5H254.5C255.3 109.5 254.167 105 253.5 103.5Z" />
<path fill-rule="evenodd" clip-rule="evenodd" d="M222.5 84C217.7 75.2 223.833 69 227.5 67C236.5 63.5 239.5 66 244.5 74.5C249.5 83 244 89.5 239 91.5C234 93.5 228.5 95 222.5 84ZM244.5 70.5C243.632 69.3432 244.167 68 245 67.5C245.639 67.1164 247.059 66.588 248 68C249 69.5 248.167 70.5 247.5 71C247 71.5 245.7 72.1 244.5 70.5ZM248 74C247.167 74.5 246.632 75.8432 247.5 77C248.7 78.6 250 78 250.5 77.5C251.167 77 252 76 251 74.5C250.059 73.088 248.639 73.6164 248 74ZM227.5 77C226.5 78 224.5 80 225.5 82.5C226.5 85 228.5 86 231 85.5C233 85.1 237.167 83 239 82C241.5 80.6364 243.5 78.5 242 75.5C240.387 72.2751 238 72.5 236 73C234 73.5 228.608 75.8216 227.5 77Z" />
<path d="M219.5 38.5L202 52.5L207 59L215 52.5L219 57.5L211 64L216.5 70.5L234 56L228.5 49.5L221.5 55.5L217.5 50.5L224.5 44.5L219.5 38.5Z" />
<path fill-rule="evenodd" clip-rule="evenodd" d="M170.5 31.5L189.5 16L196 20L192 44L184.5 39.5L186 32.5L181 29.5L175.5 34.5L170.5 31.5ZM183.5 27.5L186.5 29.5L188 23.5L183.5 27.5Z" />
<path d="M163.5 5L155.5 2.5L149 24.5L157 27L158.5 21L160.5 28L169.5 31L164.5 16L176 9L169.5 7L161 13L163.5 5Z" />
<path d="M132.5 16.5H130L129 21.5C130.833 22.3334 135.2 24 138 24C140.8 24 143.167 23 144 22.5C145.167 22 147.5 20.1 147.5 16.5C147.5 12.9 145.167 10.6667 144 10L140 7.50002C139.333 7.33335 138 6.60002 138 5.00002C138 3.40002 140 3.00002 141 3.00002C144.2 3.40002 144.667 5.50002 144.5 6.50002L147 7.00002L148 2.50002C146.167 1.50002 141.4 -0.299981 137 0.500019C131.5 1.50002 130.5 5.00002 130.5 7.50002C130.5 9.50002 132.167 11.6667 133 12.5C133.333 12.8334 134.6 13.9 137 15.5C140 17.5 140 18 140 19C140 20 139 21 136 20.5C133.6 20.1 132.667 18.3334 132.5 17.5V16.5Z" />
<path d="M125.5 0L117 0.5L118 23L126.5 22.5L125.5 0Z" />
<path d="M96.5 4L89.5 5.5L94.5 28L100 26.5L97.5 15L108.5 24.5L116 23L111 1L105 2L107.5 13.5L96.5 4Z" />
<path d="M71 13.5L63.5 17L73.5 37.5L80.5 34L78 28.5L84.5 32.5L93 28.5L78.5 20.5L82.5 8L76.5 11L74.5 21L71 13.5Z" />
<path d="M58 20.5L45.5 30L59 48.5L71.5 39L69.5 36.5L63.5 41L59.5 35.5L65.5 31L63.5 28.5L57.5 32.5L54 27.5L60 23L58 20.5Z" />
<path d="M40.5 34L27 49L29.5 51.5L33.5 47L47.5 60L53 54L39 41L43 36.5L40.5 34Z" />
<path d="M146.5 156.5H111L111 178C111 181.2 108.333 182 107 182L66.2682 182.155V190H191V182H150C147.2 182 146.5 180 146.5 179V156.5Z" />
<path d="M109 162.1V171.1H98C94 171.1 93.3333 168.433 93.5 167.1V157.1H104C108 157.1 109 160.433 109 162.1Z" />
<path d="M148.323 162.1V171.1H159.323C163.323 171.1 163.99 168.433 163.823 167.1V157.1H153.323C149.323 157.1 148.323 160.433 148.323 162.1Z" />
<path d="M109 145.2V154.2H98C94 154.2 93.3333 151.533 93.5 150.2V140.2H104C108 140.2 109 143.533 109 145.2Z" />
<path d="M148.323 145.2V154.2H159.323C163.323 154.2 163.99 151.533 163.823 150.2V140.2H153.323C149.323 140.2 148.323 143.533 148.323 145.2Z" />
<path d="M127.223 145.2V154.2H116.223C112.223 154.2 111.556 151.533 111.723 150.2V140.2H122.223C126.223 140.2 127.223 143.533 127.223 145.2Z" />
<path d="M130.1 145.2V154.2H141.1C145.1 154.2 145.767 151.533 145.6 150.2V140.2H135.1C131.1 140.2 130.1 143.533 130.1 145.2Z" />
<path d="M109 128.5V137.5H98C94 137.5 93.3333 134.833 93.5 133.5V123.5H104C108 123.5 109 126.833 109 128.5Z" />
<path d="M148.323 128.5V137.5H159.323C163.323 137.5 163.99 134.833 163.823 133.5V123.5H153.323C149.323 123.5 148.323 126.833 148.323 128.5Z" />
<path d="M127.223 128.5V137.5H116.223C112.223 137.5 111.556 134.833 111.723 133.5V123.5H122.223C126.223 123.5 127.223 126.833 127.223 128.5Z" />
<path d="M130.1 128.5V137.5H141.1C145.1 137.5 145.767 134.833 145.6 133.5V123.5H135.1C131.1 123.5 130.1 126.833 130.1 128.5Z" />
<path d="M109 111.8V120.8H98C94 120.8 93.3333 118.133 93.5 116.8V106.8H104C108 106.8 109 110.133 109 111.8Z" />
<path d="M148.323 111.8V120.8H159.323C163.323 120.8 163.99 118.133 163.823 116.8V106.8H153.323C149.323 106.8 148.323 110.133 148.323 111.8Z" />
<path d="M127.223 111.8V120.8H116.223C112.223 120.8 111.556 118.133 111.723 116.8V106.8H122.223C126.223 106.8 127.223 110.133 127.223 111.8Z" />
<path d="M130.1 111.8V120.8H141.1C145.1 120.8 145.767 118.133 145.6 116.8V106.8H135.1C131.1 106.8 130.1 110.133 130.1 111.8Z" />
<path d="M109 95V104H98C94 104 93.3333 101.333 93.5 100V90H104C108 90 109 93.3333 109 95Z" />
<path d="M148.323 95V104H159.323C163.323 104 163.99 101.333 163.823 100V90H153.323C149.323 90 148.323 93.3333 148.323 95Z" />
<path d="M127.223 95V104H116.223C112.223 104 111.556 101.333 111.723 100V90H122.223C126.223 90 127.223 93.3333 127.223 95Z" />
<path d="M130.1 95V104H141.1C145.1 104 145.767 101.333 145.6 100V90H135.1C131.1 90 130.1 93.3333 130.1 95Z" />
<path d="M109 78.3V87.3H98C94 87.3 93.3333 84.6333 93.5 83.3V73.3H104C108 73.3 109 76.6333 109 78.3Z" />
<path d="M148.323 78.3V87.3H159.323C163.323 87.3 163.99 84.6333 163.823 83.3V73.3H153.323C149.323 73.3 148.323 76.6333 148.323 78.3Z" />
<path d="M127.223 78.3V87.3H116.223C112.223 87.3 111.556 84.6333 111.723 83.3V73.3H122.223C126.223 73.3 127.223 76.6333 127.223 78.3Z" />
<path d="M130.1 78.3V87.3H141.1C145.1 87.3 145.767 84.6333 145.6 83.3V73.3H135.1C131.1 73.3 130.1 76.6333 130.1 78.3Z" />
<path d="M127.223 62V71H116.223C112.223 71 111.556 68.3333 111.723 67V57H122.223C126.223 57 127.223 60.3333 127.223 62Z" />
<path d="M130.1 62V71H141.1C145.1 71 145.767 68.3333 145.6 67V57H135.1C131.1 57 130.1 60.3333 130.1 62Z" />
<path d="M90.5229 162.1V171.1H79.5229C75.5229 171.1 74.8563 168.433 75.0229 167.1V157.1H85.5229C89.5229 157.1 90.5229 160.433 90.5229 162.1Z" />
<path d="M166.8 162.1V171.1H177.8C181.8 171.1 182.467 168.433 182.3 167.1V157.1H171.8C167.8 157.1 166.8 160.433 166.8 162.1Z" />
<path d="M90.5229 145.2V154.2H79.5229C75.5229 154.2 74.8563 151.533 75.0229 150.2V140.2H85.5229C89.5229 140.2 90.5229 143.533 90.5229 145.2Z" />
<path d="M166.8 145.2V154.2H177.8C181.8 154.2 182.467 151.533 182.3 150.2V140.2H171.8C167.8 140.2 166.8 143.533 166.8 145.2Z" />
<path d="M90.5229 128.5V137.5H79.5229C75.5229 137.5 74.8563 134.833 75.0229 133.5V123.5H85.5229C89.5229 123.5 90.5229 126.833 90.5229 128.5Z" />
<path d="M166.8 128.5V137.5H177.8C181.8 137.5 182.467 134.833 182.3 133.5V123.5H171.8C167.8 123.5 166.8 126.833 166.8 128.5Z" />
<path d="M90.5229 111.8V120.8H79.5229C75.5229 120.8 74.8563 118.133 75.0229 116.8V106.8H85.5229C89.5229 106.8 90.5229 110.133 90.5229 111.8Z" />
<path d="M166.8 111.8V120.8H177.8C181.8 120.8 182.467 118.133 182.3 116.8V106.8H171.8C167.8 106.8 166.8 110.133 166.8 111.8Z" />
<path d="M90.5229 95V104H79.5229C75.5229 104 74.8563 101.333 75.0229 100V90H85.5229C89.5229 90 90.5229 93.3333 90.5229 95Z" />
<path d="M166.8 95V104H177.8C181.8 104 182.467 101.333 182.3 100V90H171.8C167.8 90 166.8 93.3333 166.8 95Z" />
<path d="M90.5229 78.3V87.3H79.5229C75.5229 87.3 74.8563 84.6333 75.0229 83.3V73.3H85.5229C89.5229 73.3 90.5229 76.6333 90.5229 78.3Z" />
<path d="M166.8 78.3V87.3H177.8C181.8 87.3 182.467 84.6333 182.3 83.3V73.3H171.8C167.8 73.3 166.8 76.6333 166.8 78.3Z" />
<path d="M72.5229 162.1V171.1H61.5229C57.5229 171.1 56.8563 168.433 57.0229 167.1V157.1H67.5229C71.5229 157.1 72.5229 160.433 72.5229 162.1Z" />
<path d="M184.8 162.1V171.1H195.8C199.8 171.1 200.467 168.433 200.3 167.1V157.1H189.8C185.8 157.1 184.8 160.433 184.8 162.1Z" />
<path d="M72.5229 145.2V154.2H61.5229C57.5229 154.2 56.8563 151.533 57.0229 150.2V140.2H67.5229C71.5229 140.2 72.5229 143.533 72.5229 145.2Z" />
<path d="M184.8 145.2V154.2H195.8C199.8 154.2 200.467 151.533 200.3 150.2V140.2H189.8C185.8 140.2 184.8 143.533 184.8 145.2Z" />
<path d="M54.5229 145.2V154.2H43.5229C39.5229 154.2 38.8563 151.533 39.0229 150.2V140.2H49.5229C53.5229 140.2 54.5229 143.533 54.5229 145.2Z" />
<path d="M202.8 145.2V154.2H213.8C217.8 154.2 218.467 151.533 218.3 150.2V140.2H207.8C203.8 140.2 202.8 143.533 202.8 145.2Z" />
<path d="M72.5229 128.5V137.5H61.5229C57.5229 137.5 56.8563 134.833 57.0229 133.5V123.5H67.5229C71.5229 123.5 72.5229 126.833 72.5229 128.5Z" />
<path d="M184.8 128.5V137.5H195.8C199.8 137.5 200.467 134.833 200.3 133.5V123.5H189.8C185.8 123.5 184.8 126.833 184.8 128.5Z" />
<path d="M54.5229 128.5V137.5H43.5229C39.5229 137.5 38.8563 134.833 39.0229 133.5V123.5H49.5229C53.5229 123.5 54.5229 126.833 54.5229 128.5Z" />
<path d="M202.8 128.5V137.5H213.8C217.8 137.5 218.467 134.833 218.3 133.5V123.5H207.8C203.8 123.5 202.8 126.833 202.8 128.5Z" />
<path d="M72.5229 111.8V120.8H61.5229C57.5229 120.8 56.8563 118.133 57.0229 116.8V106.8H67.5229C71.5229 106.8 72.5229 110.133 72.5229 111.8Z" />
<path d="M184.8 111.8V120.8H195.8C199.8 120.8 200.467 118.133 200.3 116.8V106.8H189.8C185.8 106.8 184.8 110.133 184.8 111.8Z" />
<path d="M72.5229 95V104H61.5229C57.5229 104 56.8563 101.333 57.0229 100V90H67.5229C71.5229 90 72.5229 93.3333 72.5229 95Z" />
<path d="M184.8 95V104H195.8C199.8 104 200.467 101.333 200.3 100V90H189.8C185.8 90 184.8 93.3333 184.8 95Z" />
</g>
<defs>
<clipPath id="clip0_5_2">
<rect width="256" height="256" />
</clipPath>
</defs>
</svg>
